<?xml version="1.0" encoding="UTF-8"?>
<svg version="1.1" xmlns="http://www.w3.org/2000/svg" width="23" height="20">
<path d="M0 0 C2.4921875 1.57421875 2.4921875 1.57421875 4.875 3.6875 C5.67679688 4.37199219 6.47859375 5.05648438 7.3046875 5.76171875 C9 8 9 8 8.9921875 10.53125 C7.83372454 13.41372477 6.59472519 14.78951342 4.25 16.8125 C3.57453125 17.41707031 2.8990625 18.02164062 2.203125 18.64453125 C-0.52921688 20.32559975 -1.84189502 20.53444854 -5 20 C-7.4921875 18.42578125 -7.4921875 18.42578125 -9.875 16.3125 C-10.67679688 15.62800781 -11.47859375 14.94351562 -12.3046875 14.23828125 C-14 12 -14 12 -13.9921875 9.46875 C-12.83372454 6.58627523 -11.59472519 5.21048658 -9.25 3.1875 C-8.23679687 2.28064453 -8.23679687 2.28064453 -7.203125 1.35546875 C-4.47078312 -0.32559975 -3.15810498 -0.53444854 0 0 Z M-3 7 C-3.99 7.66 -4.98 8.32 -6 9 C-6 9.66 -6 10.32 -6 11 C-4.02 11.99 -4.02 11.99 -2 13 C-1.01 12.34 -0.02 11.68 1 11 C1 10.34 1 9.68 1 9 C-0.32 8.34 -1.64 7.68 -3 7 Z " fill="#FFFFFF" transform="translate(14,0)"/>
</svg>
